<svg width="111" height="60" viewBox="0 0 111 60" fill="none" xmlns="http://www.w3.org/2000/svg">
<path d="M71.5661 6.25151C71.5661 6.91973 71.4338 7.544 71.1697 8.12431C70.9228 8.70462 70.5796 9.21458 70.1387 9.65422C69.6982 10.0763 69.1783 10.4192 68.5793 10.6829C67.9977 10.9291 67.3726 11.0522 66.7026 11.0522C66.033 11.0522 65.399 10.9291 64.7996 10.6829C64.2184 10.4192 63.7073 10.0763 63.2669 9.65422C62.8438 9.21458 62.5001 8.70462 62.2359 8.12431C61.9891 7.544 61.8656 6.91973 61.8656 6.25151C61.8656 5.60084 61.9891 4.98538 62.2359 4.40506C62.5001 3.80717 62.8438 3.2972 63.2669 2.87516C63.7073 2.43553 64.2184 2.09263 64.7996 1.84643C65.399 1.58266 66.033 1.45077 66.7026 1.45077C67.3726 1.45077 67.9977 1.58266 68.5793 1.84643C69.1783 2.09263 69.6982 2.43553 70.1387 2.87516C70.5796 3.2972 70.9228 3.80717 71.1697 4.40506C71.4338 4.98538 71.5661 5.60084 71.5661 6.25151ZM70.3238 42.1778H63.0551V13.9274H70.3238V42.1778Z" fill="#4285F4"/>
<path d="M80.689 42.1778H73.4736V21.1021H69.958V13.9274H73.4736V12.5821C73.4736 10.8412 73.7995 9.20578 74.4512 7.67591C75.1208 6.146 76.0283 4.81831 77.1739 3.69287C78.3367 2.54984 79.6847 1.653 81.2178 1.00235C82.7509 0.334117 84.3897 0 86.1342 0H91.5524V7.17471H86.1342C85.3586 7.17471 84.6362 7.31538 83.9666 7.59676C83.3148 7.86053 82.7421 8.23862 82.2488 8.73098C81.7728 9.20578 81.3941 9.77729 81.1121 10.4456C80.8302 11.0962 80.689 11.8084 80.689 12.5821V13.9274H89.5437V21.1021H80.689V42.1778Z" fill="#4285F4"/>
<path d="M105.529 42.1224C103.785 42.1224 102.146 41.797 100.613 41.1464C99.0795 40.4781 97.7315 39.5725 96.5687 38.4295C95.4231 37.2688 94.5156 35.9236 93.8461 34.3937C93.1943 32.8638 92.8684 31.2284 92.8684 29.4875V21.0994H89.3528V13.9247H92.8684V0.0130463H100.058V13.9247H111V21.0994H100.058V29.4875C100.058 30.2436 100.198 30.9558 100.48 31.624C100.762 32.2747 101.15 32.8462 101.644 33.3386C102.137 33.831 102.719 34.2266 103.388 34.5256C104.058 34.8069 104.771 34.9476 105.529 34.9476H111V42.1224H105.529Z" fill="#4285F4"/>
<path d="M16.6199 42.2678H0V35.0492H16.6199C17.1171 35.0492 17.5432 34.8723 17.8983 34.5184C18.2535 34.1646 18.4311 33.74 18.4311 33.2446C18.4311 32.7315 18.2535 32.3953 17.8983 32.2361C17.5432 32.0769 17.1171 31.9972 16.6199 31.9972H9.05573C7.79504 31.9972 6.61422 31.7584 5.51333 31.2807C4.41244 30.803 3.4536 30.1572 2.63681 29.3434C1.82002 28.5118 1.17192 27.5476 0.692498 26.4506C0.230832 25.3537 0 24.1771 0 22.9209C0 21.6648 0.230832 20.4882 0.692498 19.3913C1.17192 18.2944 1.82002 17.3389 2.63681 16.5251C3.4536 15.7112 4.41244 15.0743 5.51333 14.6143C6.61422 14.1366 7.79504 13.8977 9.05573 13.8977H25.6734V21.1082L9.05573 21.1163C8.55854 21.1163 8.13239 21.2932 7.77728 21.6471C7.42212 22.0009 7.24457 22.4256 7.24457 22.9209C7.24457 23.434 7.42212 23.8764 7.77728 24.2479C8.13239 24.6017 8.55854 24.7787 9.05573 24.7787H16.6199C17.8628 24.7787 19.0348 24.991 20.1357 25.4156C21.2366 25.8225 22.1954 26.3976 23.0122 27.1406C23.8289 27.8837 24.4771 28.7772 24.9565 29.8211C25.4359 30.8649 25.6756 32.0061 25.6756 33.2446C25.6756 34.5008 25.4359 35.6773 24.9565 36.7743C24.4771 37.8535 23.8289 38.8089 23.0122 39.6405C22.1954 40.4543 21.2366 41.1001 20.1357 41.5778C19.0348 42.0378 17.8628 42.2678 16.6199 42.2678Z" fill="#4285F4"/>
<path d="M62.3651 31.4602C62.3651 32.9265 62.4113 34.3143 61.8474 35.6235C61.2836 36.9152 60.1798 38.0411 59.1932 39.0012C58.2239 39.9612 57.0789 40.7206 55.7571 41.2792C54.4531 41.8378 53.0522 42.1171 51.5546 42.1171C50.2155 42.1171 48.9288 41.8901 47.6954 41.4363C46.4619 40.965 45.3431 40.2842 44.3388 39.3939C43.352 40.2842 42.2419 40.965 41.0084 41.4363C39.7926 41.8901 38.5063 42.1171 37.1494 42.1171C35.6516 42.1171 34.2508 41.8378 32.9468 41.2792C31.6429 40.7206 30.4975 39.9612 29.5108 39.0012C28.5416 38.0411 27.7751 36.9152 27.2113 35.6235C26.6474 34.3143 26.3654 32.9265 26.3654 31.4602V13.9305H33.5812V31.4602C33.5812 31.949 33.6693 32.4116 33.8455 32.848C34.0394 33.2669 34.2948 33.6422 34.612 33.9739C34.9468 34.2881 35.3257 34.5412 35.7486 34.7332C36.1891 34.9077 36.6561 34.995 37.1494 34.995C37.6428 34.995 38.1098 34.9077 38.5503 34.7332C38.9908 34.5412 39.3785 34.2881 39.7133 33.9739C40.0481 33.6422 40.3036 33.2669 40.4798 32.848C40.6736 32.4116 40.7705 31.949 40.7705 31.4602V13.9305H47.96V31.4602C47.96 31.949 48.0568 32.4116 48.2508 32.848C48.4444 33.2669 48.7001 33.6422 49.0172 33.9739C49.3519 34.2881 49.7307 34.5412 50.1538 34.7332C50.5942 34.9077 51.0613 34.995 51.5546 34.995C52.0479 34.995 52.515 34.9077 52.9554 34.7332C53.3959 34.5412 53.7746 34.2881 54.0921 33.9739C54.4269 33.6422 54.691 33.2669 54.8851 32.848C55.0786 32.4116 55.1754 31.949 55.1754 31.4602V13.9305H62.3651V31.4602Z" fill="#4285F4"/>
<path d="M2.45712 50.5324V55.7951C2.45712 56.0529 2.5215 56.2427 2.65025 56.3644C2.78617 56.4791 2.96857 56.536 3.19747 56.536C3.3763 56.536 3.53367 56.5111 3.66958 56.4609C3.80549 56.4036 3.9271 56.3284 4.0344 56.2356L4.27045 57.2129C4.09877 57.3489 3.88418 57.4564 3.62666 57.5351C3.36915 57.6138 3.09733 57.6533 2.8112 57.6533C2.45354 57.6533 2.13523 57.5996 1.85625 57.492C1.58443 57.3849 1.36983 57.2129 1.21247 56.9764C1.06225 56.7404 0.987141 56.4253 0.987141 56.0316V50.9404L2.45712 50.5324ZM4.17388 52.1756V53.2711H0V52.1756H4.17388Z" fill="#6C6C6C"/>
<path d="M13.5591 57.6533C12.994 57.6533 12.5004 57.5422 12.0783 57.3204C11.6635 57.0982 11.3416 56.7795 11.1127 56.3644C10.8838 55.9489 10.7693 55.448 10.7693 54.8609C10.7693 54.2733 10.8838 53.7724 11.1127 53.3569C11.3416 52.9418 11.6599 52.6231 12.0676 52.4009C12.4825 52.1791 12.9546 52.068 13.484 52.068C14.0276 52.068 14.489 52.1791 14.8681 52.4009C15.2472 52.616 15.5369 52.9129 15.7372 53.2924C15.9375 53.6649 16.0377 54.0911 16.0377 54.5707C16.0377 54.7138 16.0341 54.8498 16.0269 54.9787C16.0198 55.1076 16.009 55.2222 15.9947 55.3227H11.7136V54.3022H15.3509L14.6428 54.56C14.6428 54.1089 14.539 53.7618 14.3316 53.5182C14.1313 53.2747 13.8452 53.1529 13.4732 53.1529C13.2014 53.1529 12.9654 53.2173 12.7651 53.3462C12.5719 53.4751 12.4253 53.6684 12.3252 53.9262C12.225 54.1769 12.1749 54.4955 12.1749 54.8822C12.1749 55.2618 12.2286 55.5769 12.3359 55.8271C12.4503 56.0707 12.6077 56.2533 12.808 56.3751C13.0155 56.4969 13.2622 56.5578 13.5483 56.5578C13.8631 56.5578 14.117 56.4969 14.3102 56.3751C14.5033 56.2533 14.6535 56.0849 14.7608 55.8702L15.9304 56.3213C15.8159 56.6004 15.6407 56.8404 15.4046 57.0409C15.1757 57.2413 14.9003 57.3955 14.5784 57.5027C14.2637 57.6031 13.9239 57.6533 13.5591 57.6533Z" fill="#6C6C6C"/>
<path d="M25.6204 52.068C26.0997 52.068 26.5039 52.1395 26.8329 52.2831C27.1691 52.4191 27.4373 52.6089 27.6376 52.852C27.8451 53.0884 27.9917 53.3533 28.0775 53.6471L26.7042 54.1409C26.6326 53.8187 26.511 53.5756 26.3393 53.4107C26.1677 53.2462 25.9352 53.1635 25.6419 53.1635C25.3701 53.1635 25.1376 53.228 24.9445 53.3569C24.7513 53.4787 24.6047 53.6684 24.5045 53.9262C24.4044 54.1769 24.3543 54.492 24.3543 54.8715C24.3543 55.2511 24.4044 55.5658 24.5045 55.8164C24.6119 56.0671 24.7621 56.2533 24.9552 56.3751C25.1555 56.4969 25.388 56.5578 25.6526 56.5578C25.8672 56.5578 26.0496 56.5218 26.1999 56.4502C26.3501 56.3715 26.4717 56.2604 26.5647 56.1173C26.6648 55.9742 26.7328 55.8022 26.7685 55.6018L28.099 56.0315C28.0204 56.3538 27.8737 56.6364 27.6591 56.88C27.4445 57.1236 27.1691 57.3129 26.8329 57.4493C26.4967 57.5853 26.1068 57.6533 25.6634 57.6533C25.1126 57.6533 24.6262 57.5422 24.2041 57.3204C23.7821 57.0982 23.4566 56.7795 23.2277 56.3644C22.9988 55.9489 22.8843 55.448 22.8843 54.8609C22.8843 54.2733 22.9988 53.7724 23.2277 53.3569C23.4566 52.9418 23.7785 52.6231 24.1934 52.4009C24.6083 52.1791 25.084 52.068 25.6204 52.068Z" fill="#6C6C6C"/>
<path d="M35.1426 57.5458V49.8236H36.6126V53.0884C36.7842 52.7449 37.0203 52.4907 37.3207 52.3258C37.6212 52.1542 37.961 52.068 38.3401 52.068C38.7121 52.068 39.0411 52.1396 39.3272 52.2831C39.6205 52.4262 39.8494 52.6445 40.0139 52.9382C40.1856 53.2245 40.2714 53.5862 40.2714 54.0231V57.5458H38.8015V54.4524C38.8015 53.9871 38.712 53.6684 38.5332 53.4964C38.3544 53.3178 38.1255 53.228 37.8465 53.228C37.6391 53.228 37.4388 53.2782 37.2456 53.3787C37.0597 53.4716 36.9059 53.6289 36.7842 53.8511C36.6698 54.0658 36.6126 54.3525 36.6126 54.7102V57.5458H35.1426Z" fill="#6C6C6C"/>
<path d="M47.6874 57.5458V52.1755H49.0069L49.0926 53.7867L48.9106 53.6147C48.9963 53.264 49.1322 52.9738 49.3182 52.7449C49.5042 52.5155 49.7293 52.3475 49.994 52.24C50.2661 52.1253 50.5627 52.068 50.8846 52.068C51.2567 52.068 51.5857 52.1395 51.8716 52.2831C52.1651 52.4262 52.3942 52.6444 52.5585 52.9382C52.7303 53.2244 52.816 53.5862 52.816 54.0231V57.5458H51.3459V54.4418C51.3459 53.9835 51.2567 53.6684 51.0778 53.4964C50.8988 53.3178 50.6666 53.228 50.3802 53.228C50.18 53.228 49.9833 53.2782 49.7902 53.3787C49.6041 53.4715 49.4505 53.6253 49.3288 53.8404C49.2143 54.0551 49.157 54.3413 49.157 54.6995V57.5458H47.6874Z" fill="#6C6C6C"/>
<path d="M62.6782 52.068C63.2221 52.068 63.6976 52.1791 64.1052 52.4009C64.5203 52.6231 64.8422 52.9418 65.0709 53.3569C65.3071 53.7724 65.4252 54.2733 65.4252 54.8609C65.4252 55.4409 65.3071 55.9418 65.0709 56.3644C64.8422 56.7795 64.5203 57.0982 64.1052 57.3204C63.6976 57.5422 63.2221 57.6533 62.6782 57.6533C62.1418 57.6533 61.6658 57.5422 61.2511 57.3204C60.8364 57.0982 60.511 56.7795 60.2748 56.3644C60.0457 55.9418 59.9316 55.4409 59.9316 54.8609C59.9316 54.2733 60.0457 53.7724 60.2748 53.3569C60.511 52.9418 60.8364 52.6231 61.2511 52.4009C61.6658 52.1791 62.1418 52.068 62.6782 52.068ZM62.6782 53.1635C62.4064 53.1635 62.1738 53.228 61.9806 53.3569C61.7946 53.4787 61.6516 53.6649 61.5517 53.9155C61.4514 54.1662 61.4012 54.4813 61.4012 54.8609C61.4012 55.24 61.4514 55.5551 61.5517 55.8058C61.6516 56.0564 61.7946 56.2462 61.9806 56.3751C62.1738 56.4969 62.4064 56.5578 62.6782 56.5578C62.9428 56.5578 63.1683 56.4969 63.3544 56.3751C63.5475 56.2462 63.694 56.0564 63.7939 55.8058C63.8943 55.5551 63.9444 55.24 63.9444 54.8609C63.9444 54.4813 63.8943 54.1662 63.7939 53.9155C63.694 53.6649 63.5475 53.4787 63.3544 53.3569C63.1683 53.228 62.9428 53.1635 62.6782 53.1635Z" fill="#6C6C6C"/>
<path d="M74.005 49.8236V55.8916C74.005 56.1422 74.0477 56.3178 74.1338 56.4182C74.2195 56.5182 74.3625 56.5684 74.5627 56.5684C74.6844 56.5684 74.7847 56.5613 74.8633 56.5471C74.9419 56.5253 75.0422 56.4969 75.1639 56.4609L75.0351 57.4276C74.9135 57.4991 74.7594 57.5529 74.5738 57.5889C74.3949 57.6316 74.2159 57.6533 74.037 57.6533C73.5149 57.6533 73.1321 57.528 72.8888 57.2773C72.6531 57.0196 72.535 56.6116 72.535 56.0529V49.8236H74.005Z" fill="#6C6C6C"/>
<path d="M84.3307 52.068C84.8742 52.068 85.3501 52.1791 85.7577 52.4009C86.1724 52.6231 86.4943 52.9418 86.7234 53.3569C86.9592 53.7724 87.0773 54.2733 87.0773 54.8609C87.0773 55.4409 86.9592 55.9418 86.7234 56.3644C86.4943 56.7795 86.1724 57.0982 85.7577 57.3204C85.3501 57.5422 84.8742 57.6533 84.3307 57.6533C83.7939 57.6533 83.3184 57.5422 82.9037 57.3204C82.4885 57.0982 82.1631 56.7795 81.9273 56.3644C81.6982 55.9418 81.5837 55.4409 81.5837 54.8609C81.5837 54.2733 81.6982 53.7724 81.9273 53.3569C82.1631 52.9418 82.4885 52.6231 82.9037 52.4009C83.3184 52.1791 83.7939 52.068 84.3307 52.068ZM84.3307 53.1635C84.059 53.1635 83.8263 53.228 83.6332 53.3569C83.4471 53.4787 83.3042 53.6649 83.2038 53.9155C83.1039 54.1662 83.0538 54.4813 83.0538 54.8609C83.0538 55.24 83.1039 55.5551 83.2038 55.8058C83.3042 56.0564 83.4471 56.2462 83.6332 56.3751C83.8263 56.4969 84.059 56.5578 84.3307 56.5578C84.5953 56.5578 84.8204 56.4969 85.0065 56.3751C85.1996 56.2462 85.3461 56.0564 85.4465 55.8058C85.5468 55.5551 85.5965 55.24 85.5965 54.8609C85.5965 54.4813 85.5468 54.1662 85.4465 53.9155C85.3461 53.6649 85.1996 53.4787 85.0065 53.3569C84.8204 53.228 84.5953 53.1635 84.3307 53.1635Z" fill="#6C6C6C"/>
<path d="M99.1132 50.8973L99.2851 51.9498C99.2562 51.9498 99.2242 51.9498 99.1883 51.9498C99.1599 51.9427 99.1274 51.9391 99.0919 51.9391C98.7629 51.9391 98.5161 52.0142 98.3513 52.1649C98.187 52.308 98.1045 52.5085 98.1045 52.7662L97.5037 52.5191C97.5037 52.2329 97.561 51.968 97.6756 51.7244C97.7901 51.4738 97.958 51.2733 98.18 51.1231C98.4086 50.9725 98.6803 50.8973 98.9951 50.8973C99.0093 50.8973 99.0275 50.8973 99.0489 50.8973C99.0702 50.8973 99.0919 50.8973 99.1132 50.8973ZM97.3537 56.536C97.9331 56.536 98.3802 56.6613 98.695 56.912C99.0093 57.1627 99.167 57.5138 99.167 57.9649C99.167 58.3729 99.0489 58.7165 98.8126 58.9956C98.5769 59.2822 98.2443 59.4969 97.815 59.64C97.3927 59.7836 96.903 59.8551 96.3449 59.8551C95.4223 59.8551 94.7461 59.7262 94.3171 59.4684C93.8949 59.2107 93.684 58.8742 93.684 58.4587C93.684 58.1653 93.795 57.9182 94.0166 57.7178C94.2457 57.5173 94.6213 57.4062 95.1434 57.3849L95.0897 57.5564C94.7176 57.492 94.4317 57.3702 94.231 57.1916C94.0379 57.0053 93.9415 56.7511 93.9415 56.4289C93.9415 56.0996 94.0667 55.8311 94.3171 55.6231C94.5747 55.4085 94.9214 55.2831 95.3579 55.2476L96.0017 55.548H95.8516C95.5439 55.5693 95.3255 55.6338 95.1967 55.7413C95.0755 55.8418 95.0147 55.956 95.0147 56.0849C95.0147 56.2356 95.0715 56.3502 95.1861 56.4289C95.3077 56.5004 95.4795 56.536 95.7011 56.536H97.3537ZM96.3556 58.8453C96.7276 58.8453 97.0318 58.8133 97.268 58.7489C97.5108 58.6844 97.6898 58.6018 97.8043 58.5018C97.926 58.4013 97.9868 58.2907 97.9868 58.1689C97.9868 58.0329 97.9331 57.9218 97.8256 57.836C97.7182 57.7569 97.525 57.7178 97.2462 57.7178H95.4329C95.2611 57.7178 95.1181 57.7604 95.0036 57.8467C94.8966 57.9324 94.8428 58.0507 94.8428 58.2009C94.8428 58.4013 94.9752 58.5591 95.2398 58.6738C95.5115 58.788 95.8836 58.8453 96.3556 58.8453ZM96.3667 52.068C96.867 52.068 97.2999 52.1431 97.6649 52.2938C98.0365 52.4369 98.3194 52.6444 98.5125 52.9164C98.7127 53.1889 98.8126 53.5147 98.8126 53.8942C98.8126 54.2662 98.7127 54.5884 98.5125 54.8609C98.3194 55.1329 98.0365 55.344 97.6649 55.4942C97.2999 55.6378 96.867 55.7093 96.3667 55.7093C95.5723 55.7093 94.9645 55.548 94.5423 55.2258C94.1276 54.8965 93.9202 54.4525 93.9202 53.8942C93.9202 53.5147 94.0166 53.1889 94.2097 52.9164C94.4099 52.6444 94.6928 52.4369 95.0573 52.2938C95.4223 52.1431 95.8587 52.068 96.3667 52.068ZM96.3667 52.992C96.0803 52.992 95.8441 53.0707 95.6585 53.228C95.4724 53.3858 95.3792 53.604 95.3792 53.8831C95.3792 54.1627 95.4724 54.3845 95.6585 54.5493C95.8441 54.7067 96.0803 54.7853 96.3667 54.7853C96.6526 54.7853 96.8852 54.7067 97.0637 54.5493C97.2498 54.3845 97.343 54.1627 97.343 53.8831C97.343 53.604 97.2498 53.3858 97.0637 53.228C96.8852 53.0707 96.6526 52.992 96.3667 52.992Z" fill="#6C6C6C"/>
<path d="M111 52.1756L108.832 57.8787C108.661 58.3658 108.468 58.7524 108.253 59.0387C108.046 59.3253 107.802 59.5329 107.523 59.6618C107.252 59.7907 106.926 59.8551 106.547 59.8551C106.268 59.8551 106.011 59.8191 105.775 59.7476C105.546 59.6831 105.345 59.5973 105.174 59.4898L105.485 58.4267C105.621 58.5338 105.764 58.6093 105.914 58.652C106.065 58.7022 106.236 58.7271 106.429 58.7271C106.629 58.7271 106.801 58.6844 106.944 58.5982C107.095 58.5124 107.219 58.3404 107.32 58.0827L107.502 57.6209L106.912 56.2249L105.27 52.1756H106.901L107.92 55.3978L108.2 56.4716L108.532 55.3333L109.509 52.1756H111Z" fill="#6C6C6C"/>
</svg>
